0
SECTION
2
HEADER
9
$INSUNITS
70
4
9
$ACADVER
1
AC1014
9
$HANDSEED
5
FFFF
0
ENDSEC
0
SECTION
2
TABLES
0
TABLE
2
VPORT
5
8
100
AcDbSymbolTable
0
ENDTAB
0
TABLE
2
LTYPE
5
5
100
AcDbSymbolTable
0
LTYPE
5
14
100
AcDbSymbolTableRecord
100
AcDbLinetypeTableRecord
2
BYBLOCK
70
0
0
LTYPE
5
15
100
AcDbSymbolTableRecord
100
AcDbLinetypeTableRecord
2
BYLAYER
70
0
0
ENDTAB
0
TABLE
2
LAYER
5
2
100
AcDbSymbolTable
70
2
0
LAYER
5
50
100
AcDbSymbolTableRecord
100
AcDbLayerTableRecord
2
0
70
0
6
CONTINUOUS
0
ENDTAB
0
TABLE
2
STYLE
5
3
100
AcDbSymbolTable
70
1
0
STYLE
5
11
100
AcDbSymbolTableRecord
100
AcDbTextStyleTableRecord
2
STANDARD
70
0
0
ENDTAB
0
TABLE
2
VIEW
5
6
100
AcDbSymbolTable
70
0
0
ENDTAB
0
TABLE
2
UCS
5
7
100
AcDbSymbolTable
70
0
0
ENDTAB
0
TABLE
2
APPID
5
9
100
AcDbSymbolTable
70
2
0
APPID
5
12
100
AcDbSymbolTableRecord
100
AcDbRegAppTableRecord
2
ACAD
70
0
0
ENDTAB
0
TABLE
2
DIMSTYLE
5
A
100
AcDbSymbolTable
70
1
0
ENDTAB
0
TABLE
2
BLOCK_RECORD
5
1
100
AcDbSymbolTable
70
1
0
BLOCK_RECORD
5
1F
100
AcDbSymbolTableRecord
100
AcDbBlockTableRecord
2
*MODEL_SPACE
0
BLOCK_RECORD
5
1B
100
AcDbSymbolTableRecord
100
AcDbBlockTableRecord
2
*PAPER_SPACE
0
ENDTAB
0
ENDSEC
0
SECTION
2
BLOCKS
0
BLOCK
5
20
100
AcDbEntity
100
AcDbBlockBegin
2
*MODEL_SPACE
0
ENDBLK
5
21
100
AcDbEntity
100
AcDbBlockEnd
0
BLOCK
5
1C
100
AcDbEntity
100
AcDbBlockBegin
2
*PAPER_SPACE
0
ENDBLK
5
1D
100
AcDbEntity
100
AcDbBlockEnd
0
ENDSEC
0
SECTION
2
ENTITIES
0
LWPOLYLINE
5
100
100
AcDbEntity
8
0
100
AcDbPolyline
90
34
70
1
43
0.0
10
282.57901741550927
20
166.23126381727883
10
100.45401741550918
20
166.23126125530902
42
-0.4142135623730534
10
99.954017408475622
20
166.73126124827547
10
99.954017372885943
20
169.26125646958167
10
99.954017372885943
20
182.26125646958167
42
0.4142135623730846
10
99.454017372885929
20
182.76125646958172
10
98.454017372885943
20
182.76125646958167
10
75.029017372885932
20
182.76125646958167
10
74.029017372885932
20
182.76125646958167
42
0.41421356237312101
10
73.52901737288596
20
182.26125646958167
10
73.529017372885932
20
169.26125646958167
10
73.529017408475625
20
166.73126087655245
42
-0.41421356237314189
10
73.029017415509188
20
166.23126086951891
10
49.141518578858012
20
166.23126053349122
42
-0.41421356237304818
10
48.641518571824456
20
166.73126052645767
10
48.64151737288595
20
251.96125646958168
10
48.641517196759089
20
260.98125713244985
42
-0.41421356237310025
10
49.141517186995934
20
261.481257142213
10
333.89151718699571
20
261.48126270231546
42
-0.4142135623731783
10
334.39151719675885
20
260.98126271207849
10
334.3915173728858
20
251.96125646958168
10
334.39151857182446
20
166.73126454613026
42
-0.41421356237307422
10
333.89151857885798
20
166.23126453909666
10
310.00401741550917
20
166.23126420306892
42
-0.41421356237311585
10
309.50401740847559
20
166.7312641960354
10
309.50401737288598
20
169.26125646958167
10
309.50401737288598
20
182.26125646958167
42
0.4142135623730534
10
309.00401737288598
20
182.76125646958167
10
308.00401737288598
20
182.76125646958167
10
284.57901737288603
20
182.76125646958167
10
283.57901737288603
20
182.76125646958167
42
0.41421356237313667
10
283.07901737288603
20
182.26125646958167
10
283.07901737288603
20
169.26125646958167
10
283.07901740847564
20
166.73126382431238
42
-0.4142135623730534
0
LWPOLYLINE
5
101
100
AcDbEntity
8
0
100
AcDbPolyline
90
8
70
1
43
0.0
10
21.804017372885941
20
244.96125646958171
42
0.41421356237309764
10
22.304017372885951
20
245.46125646958171
10
22.304017372885948
20
258.46125646958166
42
0.41421356237314444
10
21.804017372885941
20
258.96125646958171
10
8.804017372885939
20
258.96125646958171
42
0.41421356237310025
10
8.304017372885923
20
258.46125646958166
10
8.304017372885939
20
245.46125646958171
42
0.41421356237314383
10
8.804017372885939
20
244.96125646958174
0
LWPOLYLINE
5
102
100
AcDbEntity
8
0
100
AcDbPolyline
90
8
70
1
43
0.0
10
326.60401737288595
20
182.76125646958167
10
313.60401737288601
20
182.76125646958167
42
0.41421356237313667
10
313.10401737288595
20
182.26125646958167
10
313.10401737288595
20
169.26125646958167
42
0.4142135623730534
10
313.60401737288601
20
168.7612564695817
10
326.60401737288595
20
168.7612564695817
42
0.41421356237307422
10
327.10401737288578
20
169.26125646958167
10
327.10401737288583
20
182.26125646958167
42
0.41421356237307422
0
LINE
5
103
100
AcDbEntity
8
0
100
AcDbLine
10
351.70401737288603
20
168.7612564695817
30
0
11
364.70401737288597
21
168.7612564695817
31
0
0
LWPOLYLINE
5
104
100
AcDbEntity
8
0
100
AcDbPolyline
90
8
70
1
43
0.0
10
184.516517372886
20
258.46125646958166
10
184.516517372886
20
245.46125646958171
42
0.4142135623731783
10
185.016517372886
20
244.96125646958171
10
198.01651737288603
20
244.96125646958171
42
0.4142135623730534
10
198.51651737288603
20
245.46125646958171
10
198.51651737288603
20
258.46125646958166
42
0.41421356237313667
10
198.01651737288603
20
258.96125646958171
10
185.016517372886
20
258.96125646958171
42
0.4142135623731783
0
LWPOLYLINE
5
105
100
AcDbEntity
8
0
100
AcDbPolyline
90
8
70
1
43
0.0
10
165.96651737288596
20
258.96125646958171
42
0.4142135623730534
10
165.46651737288596
20
258.46125646958166
10
165.46651737288596
20
245.46125646958171
42
0.41421356237313667
10
165.96651737288596
20
244.96125646958171
10
178.96651737288596
20
244.96125646958171
42
0.4142135623731783
10
179.46651737288596
20
245.46125646958171
10
179.46651737288596
20
258.46125646958166
42
0.4142135623731783
10
178.96651737288596
20
258.96125646958171
0
LINE
5
106
100
AcDbEntity
8
0
100
AcDbLine
10
373.64201737288596
20
182.76125646958167
30
0
11
373.64201737288596
21
183.26125646958167
31
0
0
LINE
5
107
100
AcDbEntity
8
0
100
AcDbLine
10
361.22901737288595
20
168.7612564695817
30
0
11
374.22901737288583
21
168.7612564695817
31
0
0
LWPOLYLINE
5
108
100
AcDbEntity
8
0
100
AcDbPolyline
90
8
70
1
43
0.0
10
27.854017372885945
20
258.96125646958171
42
0.41421356237310025
10
27.354017372885927
20
258.46125646958166
10
27.354017372885941
20
245.46125646958171
42
0.41421356237314189
10
27.854017372885945
20
244.96125646958171
10
40.854017372885949
20
244.96125646958171
42
0.41421356237310025
10
41.354017372885956
20
245.46125646958171
10
41.354017372885956
20
258.46125646958166
42
0.41421356237314705
10
40.854017372885949
20
258.96125646958171
0
ARC
5
109
100
AcDbEntity
8
0
100
AcDbCircle
10
349.26601737288598
20
183.26125646958167
30
0
40
0.49999999999997158
210
0
220
0
230
1
100
AcDbArc
50
0
51
90
0
LINE
5
110
100
AcDbEntity
8
0
100
AcDbLine
10
364.70401737288597
20
182.76125646958167
30
0
11
351.70401737288603
21
182.76125646958167
31
0
0
LWPOLYLINE
5
111
100
AcDbEntity
8
0
100
AcDbPolyline
90
8
70
1
43
0.0
10
380.27901737288596
20
168.7612564695817
10
393.2790173728859
20
168.7612564695817
42
0.41421356237311585
10
393.77901737288596
20
169.26125646958167
10
393.77901737288596
20
182.26125646958167
42
0.41421356237313667
10
393.2790173728859
20
182.76125646958167
10
380.27901737288596
20
182.76125646958167
42
0.41421356237326151
10
379.7790173728859
20
182.26125646958167
10
379.7790173728859
20
169.26125646958167
42
0.41421356237319906
0
ARC
5
112
100
AcDbEntity
8
0
100
AcDbCircle
10
373.14201737288602
20
183.26125646958167
30
0
40
0.49999999999997158
210
0
220
0
230
1
100
AcDbArc
50
0
51
90
0
LWPOLYLINE
5
113
100
AcDbEntity
8
0
100
AcDbPolyline
90
8
70
1
43
0.0
10
108.31651737288594
20
258.46125646958166
10
108.31651737288594
20
245.46125646958171
42
0.41421356237313667
10
108.81651737288593
20
244.96125646958171
10
121.81651737288591
20
244.96125646958171
42
0.41421356237307422
10
122.31651737288595
20
245.46125646958171
10
122.31651737288594
20
258.46125646958166
42
0.41421356237313667
10
121.81651737288591
20
258.96125646958171
10
108.81651737288593
20
258.96125646958171
42
0.41421356237304302
0
ARC
5
114
100
AcDbEntity
8
0
100
AcDbCircle
10
374.22901737288583
20
182.26125646958167
30
0
40
0.49999999999997158
210
0
220
0
230
1
100
AcDbArc
50
0
51
90
0
LINE
5
115
100
AcDbEntity
8
0
100
AcDbLine
10
412.82901737288597
20
169.26125646958167
30
0
11
412.82901737288597
21
182.26125646958167
31
0
0
ARC
5
116
100
AcDbEntity
8
0
100
AcDbCircle
10
399.32901737288603
20
169.26125646958167
30
0
40
0.49999999999997158
210
0
220
0
230
1
100
AcDbArc
50
180
51
270
0
LINE
5
117
100
AcDbEntity
8
0
100
AcDbLine
10
342.17901737288594
20
168.7612564695817
30
0
11
355.17901737288588
21
168.7612564695817
31
0
0
ARC
5
118
100
AcDbEntity
8
0
100
AcDbCircle
10
412.32901737288603
20
169.26125646958167
30
0
40
0.50000000000004263
210
0
220
0
230
1
100
AcDbArc
50
-90
51
0
0
ARC
5
119
100
AcDbEntity
8
0
100
AcDbCircle
10
342.17901737288594
20
182.26125646958167
30
0
40
0.50000000000000711
210
0
220
-0
230
1
100
AcDbArc
50
90
51
180
0
ARC
5
120
100
AcDbEntity
8
0
100
AcDbCircle
10
343.26601737288593
20
183.26125646958167
30
0
40
0.49999999999997158
210
0
220
-0
230
1
100
AcDbArc
50
90
51
180
0
LINE
5
121
100
AcDbEntity
8
0
100
AcDbLine
10
399.32901737288603
20
168.7612564695817
30
0
11
412.32901737288603
21
168.76125646958161
31
0
0
LINE
5
122
100
AcDbEntity
8
0
100
AcDbLine
10
349.26601737288598
20
183.76125646958167
30
0
11
343.26601737288593
21
183.76125646958167
31
0
0
LWPOLYLINE
5
123
100
AcDbEntity
8
0
100
AcDbPolyline
90
8
70
1
43
0.0
10
89.266517372885929
20
258.46125646958166
10
89.266517372885929
20
245.46125646958171
42
0.41421356237314705
10
89.766517372885929
20
244.96125646958171
10
102.76651737288594
20
244.96125646958171
42
0.41421356237312623
10
103.26651737288593
20
245.46125646958171
10
103.26651737288593
20
258.46125646958166
42
0.41421356237312623
10
102.76651737288594
20
258.96125646958171
10
89.766517372885929
20
258.96125646958171
42
0.41421356237309503
0
LINE
5
124
100
AcDbEntity
8
0
100
AcDbLine
10
373.14201737288602
20
183.76125646958167
30
0
11
367.14201737288596
21
183.7612564695817
31
0
0
LINE
5
125
100
AcDbEntity
8
0
100
AcDbLine
10
374.72901737288589
20
169.26125646958167
30
0
11
374.72901737288578
21
182.26125646958167
31
0
0
LINE
5
126
100
AcDbEntity
8
0
100
AcDbLine
10
342.76601737288593
20
183.26125646958167
30
0
11
342.76601737288587
21
182.76125646958167
31
0
0
LWPOLYLINE
5
127
100
AcDbEntity
8
0
100
AcDbPolyline
90
8
70
1
43
0.0
10
217.06651737288598
20
244.96125646958171
42
0.4142135623731783
10
217.56651737288598
20
245.46125646958171
10
217.56651737288598
20
258.46125646958166
42
0.4142135623731783
10
217.06651737288598
20
258.96125646958171
10
204.06651737288598
20
258.96125646958171
42
0.41421356237311585
10
203.56651737288601
20
258.46125646958166
10
203.56651737288601
20
245.46125646958171
42
0.41421356237311585
10
204.06651737288598
20
244.96125646958171
0
LWPOLYLINE
5
128
100
AcDbEntity
8
0
100
AcDbPolyline
90
8
70
1
43
0.0
10
51.666517372885934
20
258.96125646958171
42
0.4142135623730846
10
51.166517372885913
20
258.46125646958171
10
51.166517372885934
20
245.46125646958171
42
0.41421356237313667
10
51.666517372885934
20
244.96125646958171
10
64.666517372885934
20
244.96125646958171
42
0.41421356237309503
10
65.166517372885949
20
245.46125646958171
10
65.166517372885949
20
258.46125646958166
42
0.41421356237314705
10
64.666517372885934
20
258.96125646958171
0
LINE
5
129
100
AcDbEntity
8
0
100
AcDbLine
10
341.67901737288588
20
182.26125646958167
30
0
11
341.67901737288594
21
169.26125646958167
31
0
0
LWPOLYLINE
5
130
100
AcDbEntity
8
0
100
AcDbPolyline
90
8
70
1
43
0.0
10
84.216517372885932
20
258.46125646958166
42
0.41421356237314705
10
83.716517372885932
20
258.96125646958171
10
70.716517372885932
20
258.96125646958171
42
0.41421356237309503
10
70.216517372885932
20
258.46125646958166
10
70.216517372885932
20
245.46125646958171
42
0.41421356237314705
10
70.716517372885932
20
244.96125646958171
10
83.716517372885932
20
244.96125646958171
42
0.41421356237309503
10
84.216517372885932
20
245.46125646958171
0
ARC
5
131
100
AcDbEntity
8
0
100
AcDbCircle
10
374.22901737288583
20
169.26125646958167
30
0
40
0.50000000000004263
210
0
220
0
230
1
100
AcDbArc
50
-90
51
0
0
LWPOLYLINE
5
132
100
AcDbEntity
8
0
100
AcDbPolyline
90
8
70
1
43
0.0
10
274.71651737288602
20
258.46125646958166
42
0.4142135623731783
10
274.21651737288602
20
258.96125646958171
10
261.21651737288602
20
258.96125646958171
42
0.41421356237311585
10
260.71651737288607
20
258.46125646958166
10
260.71651737288607
20
245.46125646958171
42
0.41421356237311585
10
261.21651737288602
20
244.96125646958171
10
274.21651737288602
20
244.96125646958171
42
0.4142135623731783
10
274.71651737288602
20
245.46125646958171
0
LWPOLYLINE
5
133
100
AcDbEntity
8
0
100
AcDbPolyline
90
8
70
1
43
0.0
10
127.86651737288595
20
258.96125646958171
42
0.41421356237310542
10
127.36651737288597
20
258.46125646958171
10
127.36651737288597
20
245.46125646958171
42
0.41421356237312623
10
127.86651737288595
20
244.96125646958171
10
140.86651737288594
20
244.96125646958171
42
0.41421356237313667
10
141.36651737288594
20
245.46125646958171
10
141.36651737288594
20
258.46125646958166
42
0.41421356237314705
10
140.86651737288594
20
258.96125646958171
0
LWPOLYLINE
5
134
100
AcDbEntity
8
0
100
AcDbPolyline
90
8
70
1
43
0.0
10
241.66651737288601
20
258.46125646958166
10
241.66651737288601
20
245.46125646958171
42
0.41421356237313667
10
242.16651737288601
20
244.96125646958171
10
255.16651737288598
20
244.96125646958171
42
0.4142135623730534
10
255.66651737288598
20
245.46125646958171
10
255.66651737288598
20
258.46125646958166
42
0.41421356237313667
10
255.16651737288598
20
258.96125646958171
10
242.16651737288601
20
258.96125646958171
42
0.4142135623730534
0
ARC
5
135
100
AcDbEntity
8
0
100
AcDbCircle
10
330.27951737288583
20
244.46125646958168
30
0
40
0.49999999999997158
210
0
220
0
230
1
100
AcDbArc
50
-90
51
0
0
LWPOLYLINE
5
136
100
AcDbEntity
8
0
100
AcDbPolyline
90
8
70
1
43
0.0
10
159.91651737288601
20
244.96125646958171
42
0.41421356237311585
10
160.41651737288589
20
245.46125646958171
10
160.41651737288601
20
258.46125646958166
42
0.41421356237314705
10
159.91651737288601
20
258.96125646958171
10
146.91651737288592
20
258.96125646958171
42
0.41421356237309503
10
146.41651737288592
20
258.46125646958166
10
146.41651737288592
20
245.46125646958171
42
0.41421356237314705
10
146.91651737288592
20
244.96125646958171
0
ARC
5
137
100
AcDbEntity
8
0
100
AcDbCircle
10
324.27951737288595
20
244.46125646958168
30
0
40
0.50000000000004263
210
0
220
0
230
1
100
AcDbArc
50
180
51
270
0
ARC
5
138
100
AcDbEntity
8
0
100
AcDbCircle
10
342.17901737288594
20
169.26125646958167
30
0
40
0.49999999999997158
210
0
220
0
230
1
100
AcDbArc
50
180
51
270
0
LWPOLYLINE
5
139
100
AcDbEntity
8
0
100
AcDbPolyline
90
8
70
1
43
0.0
10
40.854017372885949
20
225.9112564695817
42
0.4142135623730534
10
41.354017372885991
20
226.41125646958164
10
41.354017372885956
20
239.4112564695817
42
0.4142135623730846
10
40.854017372885949
20
239.91125646958167
10
27.854017372885945
20
239.91125646958167
42
0.41421356237307422
10
27.354017372885941
20
239.4112564695817
10
27.354017372885941
20
226.41125646958164
42
0.41421356237308204
10
27.854017372885945
20
225.9112564695817
0
LWPOLYLINE
5
140
100
AcDbEntity
8
0
100
AcDbPolyline
90
8
70
1
43
0.0
10
8.304017372885939
20
239.4112564695817
10
8.304017372885939
20
226.41125646958164
42
0.41421356237308332
10
8.804017372885939
20
225.91125646958173
10
21.804017372885941
20
225.9112564695817
42
0.41421356237305079
10
22.304017372885948
20
226.41125646958164
10
22.304017372885948
20
239.4112564695817
42
0.41421356237308721
10
21.804017372885941
20
239.91125646958167
10
8.804017372885939
20
239.91125646958167
42
0.41421356237307355
0
LWPOLYLINE
5
141
100
AcDbEntity
8
0
100
AcDbPolyline
90
8
70
1
43
0.0
10
236.61651737288605
20
245.46125646958171
10
236.61651737288605
20
258.46125646958166
42
0.41421356237313667
10
236.11651737288605
20
258.96125646958171
10
223.11651737288602
20
258.96125646958171
42
0.41421356237311585
10
222.61651737288599
20
258.46125646958166
10
222.61651737288599
20
245.46125646958171
42
0.41421356237311585
10
223.11651737288602
20
244.96125646958171
10
236.11651737288605
20
244.96125646958171
42
0.4142135623730534
0
LWPOLYLINE
5
142
100
AcDbEntity
8
0
100
AcDbPolyline
90
8
70
1
43
0.0
10
293.26651737288603
20
244.96125646958171
42
0.4142135623731783
10
293.76651737288603
20
245.46125646958171
10
293.76651737288603
20
258.46125646958166
42
0.4142135623731783
10
293.26651737288603
20
258.96125646958171
10
280.26651737288603
20
258.96125646958171
42
0.41421356237311585
10
279.76651737288603
20
258.46125646958166
10
279.76651737288603
20
245.46125646958171
42
0.41421356237311585
10
280.26651737288603
20
244.96125646958171
0
LWPOLYLINE
5
143
100
AcDbEntity
8
0
100
AcDbPolyline
90
8
70
1
43
0.0
10
399.32901737288603
20
244.96125646958171
10
412.32901737288603
20
244.96125646958171
42
0.41421356237313667
10
412.82901737288597
20
245.46125646958171
10
412.82901737288597
20
258.46125646958166
42
0.41421356237313667
10
412.32901737288603
20
258.96125646958171
10
399.32901737288603
20
258.96125646958171
42
0.41421356237307422
10
398.82901737288597
20
258.46125646958166
10
398.82901737288597
20
245.46125646958171
42
0.41421356237307422
0
ARC
5
144
100
AcDbEntity
8
0
100
AcDbCircle
10
306.40351737288603
20
244.46125646958168
30
0
40
0.49999999999997158
210
0
220
0
230
1
100
AcDbArc
50
-90
51
0
0
LWPOLYLINE
5
145
100
AcDbEntity
8
0
100
AcDbPolyline
90
8
70
1
43
0.0
10
393.77901737288596
20
258.46125646958166
42
0.41421356237313667
10
393.2790173728859
20
258.96125646958166
10
380.27901737288596
20
258.96125646958171
42
0.41421356237326151
10
379.77901737288596
20
258.46125646958166
10
379.77901737288596
20
245.46125646958171
42
0.41421356237326151
10
380.27901737288596
20
244.96125646958174
10
393.2790173728859
20
244.96125646958171
42
0.41421356237313667
10
393.77901737288596
20
245.46125646958171
0
LINE
5
146
100
AcDbEntity
8
0
100
AcDbLine
10
321.84151737288602
20
258.96125646958171
30
0
11
308.84151737288607
21
258.96125646958171
31
0
0
LWPOLYLINE
5
147
100
AcDbEntity
8
0
100
AcDbPolyline
90
8
70
1
43
0.0
10
355.17901737288588
20
244.96125646958171
42
0.41421356237326151
10
355.67901737288594
20
245.46125646958171
10
355.67901737288588
20
258.46125646958166
42
0.41421356237326151
10
355.17901737288588
20
258.96125646958166
10
342.17901737288594
20
258.96125646958171
42
0.41421356237313667
10
341.67901737288588
20
258.46125646958166
10
341.67901737288588
20
245.46125646958171
42
0.41421356237313667
10
342.17901737288594
20
244.96125646958171
0
LINE
5
148
100
AcDbEntity
8
0
100
AcDbLine
10
300.40351737288603
20
243.96125646958168
30
0
11
306.40351737288603
21
243.96125646958171
31
0
0
LINE
5
149
100
AcDbEntity
8
0
100
AcDbLine
10
323.77951737288583
20
244.96125646958171
30
0
11
323.77951737288589
21
244.46125646958168
31
0
0
LWPOLYLINE
5
150
100
AcDbEntity
8
0
100
AcDbPolyline
90
8
70
1
43
0.0
10
374.72901737288595
20
258.46125646958166
42
0.41421356237313667
10
374.22901737288583
20
258.96125646958171
10
361.22901737288595
20
258.96125646958171
42
0.41421356237326151
10
360.72901737288595
20
258.46125646958166
10
360.72901737288583
20
245.46125646958171
42
0.41421356237313667
10
361.22901737288595
20
244.96125646958166
10
374.22901737288583
20
244.96125646958171
42
0.41421356237307422
10
374.72901737288589
20
245.46125646958171
0
LWPOLYLINE
5
151
100
AcDbEntity
8
0
100
AcDbPolyline
90
9
70
1
43
0.0
10
180.91651737288601
20
175.76125646958167
10
180.91651737288601
20
182.26125646958167
42
0.41421356237313667
10
180.41651737288601
20
182.76125646958167
10
141.96651737288596
20
182.76125646958167
42
0.41421356237313667
10
141.46651737288596
20
182.26125646958167
10
141.46651737288596
20
169.26125646958167
42
0.41421356237310542
10
141.96651737288596
20
168.76125646958167
10
180.41651737288601
20
168.7612564695817
42
0.41421356237319906
10
180.91651737288601
20
169.26125646958167
0
LINE
5
152
100
AcDbEntity
8
0
100
AcDbLine
10
330.77951737288578
20
244.46125646958168
30
0
11
330.77951737288583
21
244.96125646958171
31
0
0
LINE
5
153
100
AcDbEntity
8
0
100
AcDbLine
10
398.82901737288597
20
169.84825646958168
30
0
11
398.82901737288603
21
169.26125646958167
31
0
0
LINE
5
154
100
AcDbEntity
8
0
100
AcDbLine
10
331.86651737288582
20
245.46125646958171
30
0
11
331.86651737288582
21
258.46125646958166
31
0
0
LINE
5
155
100
AcDbEntity
8
0
100
AcDbLine
10
312.31651737288598
20
258.96125646958171
30
0
11
299.31651737288598
21
258.96125646958171
31
0
0
LINE
5
156
100
AcDbEntity
8
0
100
AcDbLine
10
398.82901737288597
20
220.36125646958169
30
0
11
398.82901737288597
21
214.94825646958168
31
0
0
ARC
5
157
100
AcDbEntity
8
0
100
AcDbCircle
10
300.40351737288603
20
244.46125646958168
30
0
40
0.50000000000000711
210
0
220
0
230
1
100
AcDbArc
50
180
51
270
0
ARC
5
158
100
AcDbEntity
8
0
100
AcDbCircle
10
299.31651737288598
20
258.46125646958166
30
0
40
0.50000000000000711
210
0
220
-0
230
1
100
AcDbArc
50
90
51
180
0
LINE
5
159
100
AcDbEntity
8
0
100
AcDbLine
10
398.82901737288597
20
239.4112564695817
30
0
11
398.82901737288597
21
238.82425646958168
31
0
0
LINE
5
160
100
AcDbEntity
8
0
100
AcDbLine
10
398.82901737288597
20
231.82425646958168
30
0
11
398.82901737288597
21
226.41125646958164
31
0
0
LINE
5
161
100
AcDbEntity
8
0
100
AcDbLine
10
61.634767372885939
20
187.81125646958171
30
0
11
67.047767372885943
21
187.81125646958171
31
0
0
LINE
5
162
100
AcDbEntity
8
0
100
AcDbLine
10
299.90351737288609
20
244.96125646958171
30
0
11
299.90351737288603
21
244.46125646958168
31
0
0
LINE
5
163
100
AcDbEntity
8
0
100
AcDbLine
10
355.17901737288588
20
182.76125646958167
30
0
11
349.76601737288598
21
182.76125646958167
31
0
0
LINE
5
164
100
AcDbEntity
8
0
100
AcDbLine
10
374.22901737288583
20
182.76125646958164
30
0
11
373.64201737288596
21
182.76125646958167
31
0
0
LINE
5
165
100
AcDbEntity
8
0
100
AcDbLine
10
54.047767372885936
20
187.81125646958171
30
0
11
54.634767372885939
21
187.81125646958171
31
0
0
LINE
5
166
100
AcDbEntity
8
0
100
AcDbLine
10
306.90351737288603
20
244.96125646958171
30
0
11
312.31651737288598
21
244.96125646958171
31
0
0
LINE
5
167
100
AcDbEntity
8
0
100
AcDbLine
10
299.31651737288598
20
244.96125646958171
30
0
11
299.90351737288609
21
244.96125646958171
31
0
0
LINE
5
168
100
AcDbEntity
8
0
100
AcDbLine
10
366.64201737288602
20
182.76125646958167
30
0
11
361.22901737288595
21
182.76125646958167
31
0
0
LINE
5
169
100
AcDbEntity
8
0
100
AcDbLine
10
342.76601737288587
20
182.76125646958167
30
0
11
342.17901737288594
21
182.76125646958167
31
0
0
LINE
5
170
100
AcDbEntity
8
0
100
AcDbLine
10
398.82901737288597
20
207.94825646958171
30
0
11
398.82901737288597
21
207.36125646958163
31
0
0
LINE
5
171
100
AcDbEntity
8
0
100
AcDbLine
10
308.84151737288607
20
244.96125646958171
30
0
11
321.84151737288602
21
244.96125646958171
31
0
0
LINE
5
172
100
AcDbEntity
8
0
100
AcDbLine
10
306.90351737288603
20
244.46125646958168
30
0
11
306.90351737288603
21
244.96125646958171
31
0
0
LINE
5
173
100
AcDbEntity
8
0
100
AcDbLine
10
331.36651737288588
20
258.96125646958171
30
0
11
318.36651737288594
21
258.96125646958171
31
0
0
LINE
5
174
100
AcDbEntity
8
0
100
AcDbLine
10
330.77951737288583
20
244.96125646958171
30
0
11
331.36651737288588
21
244.96125646958171
31
0
0
LINE
5
175
100
AcDbEntity
8
0
100
AcDbLine
10
324.27951737288595
20
243.96125646958166
30
0
11
330.27951737288583
21
243.96125646958171
31
0
0
ARC
5
176
100
AcDbEntity
8
0
100
AcDbCircle
10
299.31651737288598
20
245.46125646958171
30
0
40
0.50000000000000711
210
0
220
0
230
1
100
AcDbArc
50
180
51
270
0
LINE
5
177
100
AcDbEntity
8
0
100
AcDbLine
10
398.82901737288597
20
182.26125646958167
30
0
11
398.82901737288597
21
176.84825646958166
31
0
0
LWPOLYLINE
5
178
100
AcDbEntity
8
0
100
AcDbPolyline
90
9
70
1
43
0.0
10
202.11651737288605
20
182.26125646958167
42
-0.41421356237303258
10
202.61651737288602
20
182.76125646958167
10
241.06651737288601
20
182.76125646958167
42
-0.41421356237319906
10
241.56651737288598
20
182.26125646958167
10
241.56651737288598
20
169.26125646958167
42
-0.41421356237311585
10
241.06651737288601
20
168.76125646958167
10
202.61651737288602
20
168.7612564695817
42
-0.41421356237326151
10
202.11651737288605
20
169.26125646958167
10
202.11651737288605
20
175.76125646958167
0
LINE
5
179
100
AcDbEntity
8
0
100
AcDbLine
10
398.82901737288597
20
201.31125646958168
30
0
11
398.82901737288597
21
200.72425646958169
31
0
0
LINE
5
180
100
AcDbEntity
8
0
100
AcDbLine
10
75.479017372885949
20
187.81125646958171
30
0
11
78.510767372885951
21
187.81125646958171
31
0
0
ARC
5
181
100
AcDbEntity
8
0
100
AcDbCircle
10
331.36651737288588
20
245.46125646958171
30
0
40
0.50000000000000711
210
0
220
0
230
1
100
AcDbArc
50
-90
51
0
0
LINE
5
182
100
AcDbEntity
8
0
100
AcDbLine
10
179.00000266730785
20
168.7612564695817
30
0
11
180.91651737288601
21
168.7612564695817
31
0
0
LINE
5
183
100
AcDbEntity
8
0
100
AcDbLine
10
298.81651737288598
20
258.46125646958166
30
0
11
298.81651737288598
21
245.46125646958171
31
0
0
LINE
5
184
100
AcDbEntity
8
0
100
AcDbLine
10
85.510767372885951
20
187.81125646958171
30
0
11
88.479017372885949
21
187.81125646958171
31
0
0
LINE
5
185
100
AcDbEntity
8
0
100
AcDbLine
10
318.36651737288594
20
244.96125646958171
30
0
11
323.77951737288583
21
244.96125646958171
31
0
0
ARC
5
186
100
AcDbEntity
8
0
100
AcDbCircle
10
331.36651737288588
20
258.46125646958166
30
0
40
0.49999999999997158
210
0
220
0
230
1
100
AcDbArc
50
0
51
90
0
LINE
5
187
100
AcDbEntity
8
0
100
AcDbLine
10
398.82901737288597
20
193.72425646958169
30
0
11
398.82901737288597
21
188.31125646958168
31
0
0
LWPOLYLINE
5
188
100
AcDbEntity
8
0
100
AcDbPolyline
90
8
70
1
43
0.0
10
98.791517372885934
20
226.41125646958164
42
0.4142135623730534
10
99.29151737288592
20
225.9112564695817
10
112.29151737288596
20
225.9112564695817
42
0.41421356237307422
10
112.79151737288595
20
226.41125646958164
10
112.79151737288595
20
239.41125646958167
42
0.41421356237313667
10
112.29151737288596
20
239.91125646958167
10
99.29151737288592
20
239.91125646958167
42
0.41421356237307422
10
98.791517372885934
20
239.4112564695817
0
LWPOLYLINE
5
189
100
AcDbEntity
8
0
100
AcDbPolyline
90
15
70
1
43
0.0
10
400.03771337288526
20
166.23126546958159
10
411.68205237288566
20
166.2312654695819
42
0.1989123820764736
10
412.74271331175271
20
166.67060565067561
10
414.86403337288482
20
168.79192546958149
42
0.19891236737961707
10
415.30337271573779
20
169.85258446958142
10
415.30337237288398
20
257.85994246958217
42
0.1989125406411866
10
414.86403283755607
20
258.92060293425686
10
412.74271337288633
20
261.04192446958115
42
0.19891244168038602
10
411.68205265115574
20
261.48126493375514
10
409.56271437288535
20
261.48126417989084
10
339.65401736312282
20
261.48126281483547
42
0.41421355665395843
10
339.15401737288573
20
260.98126281483547
10
339.15401737288585
20
251.96125646958168
10
339.15401857182439
20
166.73126461312478
42
0.41421356237311585
10
339.65401857885774
20
166.2312646201583
0
LWPOLYLINE
5
190
100
AcDbEntity
8
0
100
AcDbPolyline
90
15
70
1
43
0.0
10
8.3990213728848406
20
166.67060146958167
42
0.19891241741284435
10
9.4596822474450164
20
166.231260298302
10
21.837774372885175
20
166.23126014940681
10
43.379018578858002
20
166.23126045242955
42
0.41421356237310025
10
43.87901857182446
20
166.7312604594631
10
43.879017372885933
20
251.96125646958168
10
43.879017196759051
20
260.98125703945612
42
0.4142135623731783
10
43.379017186995924
20
261.48125702969287
10
14.694015372884678
20
261.48125646958209
10
9.4596803728854884
20
261.48125746958181
42
0.19891246608198351
10
8.3990187982847999
20
261.04191765275488
10
6.2777023728857184
20
258.92060046958181
42
0.19891236737964715
10
5.8383626158189683
20
257.85994046958143
10
5.8383623728844878
20
169.85258146958219
42
0.19891236737962009
10
6.277702493997884
20
168.79192059069561
0
LWPOLYLINE
5
191
100
AcDbEntity
8
0
100
AcDbPolyline
90
8
70
1
43
0.0
10
93.741517372885909
20
226.41125646958164
10
93.741517372885966
20
239.41125646958167
42
0.41421356237314705
10
93.241517372885951
20
239.91125646958167
10
80.241517372885937
20
239.91125646958167
42
0.41421356237307422
10
79.741517372885937
20
239.4112564695817
10
79.741517372885951
20
226.41125646958164
42
0.41421356237307422
10
80.241517372885937
20
225.9112564695817
10
93.241517372885909
20
225.9112564695817
42
0.41421356237307422
0
LWPOLYLINE
5
192
100
AcDbEntity
8
0
100
AcDbPolyline
90
8
70
1
43
0.0
10
150.39151737288597
20
225.9112564695817
42
0.41421356237307422
10
150.891517372886
20
226.41125646958164
10
150.89151737288597
20
239.4112564695817
42
0.41421356237306384
10
150.39151737288594
20
239.91125646958167
10
137.39151737288594
20
239.91125646958167
42
0.41421356237307422
10
136.89151737288594
20
239.4112564695817
10
136.89151737288594
20
226.41125646958164
42
0.41421356237311585
10
137.39151737288594
20
225.9112564695817
0
LWPOLYLINE
5
193
100
AcDbEntity
8
0
100
AcDbPolyline
90
8
70
1
43
0.0
10
245.641517372886
20
239.91125646958167
10
232.641517372886
20
239.91125646958167
42
0.41421356237309503
10
232.14151737288603
20
239.4112564695817
10
232.14151737288603
20
226.41125646958164
42
0.41421356237309503
10
232.641517372886
20
225.9112564695817
10
245.641517372886
20
225.9112564695817
42
0.41421356237311585
10
246.14151737288603
20
226.41125646958164
10
246.14151737288603
20
239.4112564695817
42
0.41421356237311585
0
LWPOLYLINE
5
194
100
AcDbEntity
8
0
100
AcDbPolyline
90
8
70
1
43
0.0
10
289.29151737288595
20
226.41125646958164
42
0.41421356237313667
10
289.79151737288595
20
225.91125646958164
10
302.79151737288595
20
225.9112564695817
42
0.4142135623730534
10
303.29151737288601
20
226.41125646958164
10
303.29151737288601
20
239.4112564695817
42
0.41421356237311585
10
302.79151737288595
20
239.91125646958167
10
289.79151737288595
20
239.91125646958167
42
0.41421356237303258
10
289.29151737288595
20
239.4112564695817
0
LWPOLYLINE
5
195
100
AcDbEntity
8
0
100
AcDbPolyline
90
8
70
1
43
0.0
10
326.60401737288595
20
225.9112564695817
42
0.41421356237307422
10
327.10401737288578
20
226.41125646958164
10
327.10401737288583
20
239.4112564695817
42
0.41421356237313667
10
326.60401737288595
20
239.91125646958167
10
313.60401737288601
20
239.91125646958167
42
0.41421356237303258
10
313.10401737288595
20
239.4112564695817
10
313.10401737288595
20
226.41125646958164
42
0.41421356237313667
10
313.60401737288601
20
225.91125646958164
0
LWPOLYLINE
5
196
100
AcDbEntity
8
0
100
AcDbPolyline
90
8
70
1
43
0.0
10
284.24151737288594
20
226.41125646958164
10
284.24151737288594
20
239.4112564695817
42
0.41421356237311585
10
283.74151737288594
20
239.91125646958167
10
270.74151737288605
20
239.91125646958167
42
0.41421356237303258
10
270.24151737288599
20
239.4112564695817
10
270.24151737288599
20
226.41125646958164
42
0.41421356237313667
10
270.74151737288605
20
225.91125646958164
10
283.74151737288594
20
225.9112564695817
42
0.41421356237311585
0
LWPOLYLINE
5
197
100
AcDbEntity
8
0
100
AcDbPolyline
90
8
70
1
43
0.0
10
213.09151737288602
20
239.4112564695817
10
213.09151737288602
20
226.41125646958164
42
0.4142135623730534
10
213.59151737288602
20
225.91125646958164
10
226.59151737288602
20
225.9112564695817
42
0.41421356237303258
10
227.09151737288605
20
226.41125646958164
10
227.09151737288605
20
239.41125646958167
42
0.41421356237313667
10
226.59151737288602
20
239.91125646958167
10
213.59151737288602
20
239.91125646958167
42
0.41421356237311585
0
LWPOLYLINE
5
198
100
AcDbEntity
8
0
100
AcDbPolyline
90
8
70
1
43
0.0
10
156.44151737288593
20
225.9112564695817
10
169.44151737288598
20
225.9112564695817
42
0.41421356237303258
10
169.94151737288601
20
226.41125646958164
10
169.94151737288601
20
239.41125646958167
42
0.41421356237313667
10
169.44151737288598
20
239.91125646958167
10
156.44151737288593
20
239.91125646958167
42
0.41421356237307422
10
155.94151737288593
20
239.4112564695817
10
155.94151737288593
20
226.41125646958164
42
0.41421356237307422
0
LWPOLYLINE
5
199
100
AcDbEntity
8
0
100
AcDbPolyline
90
8
70
1
43
0.0
10
55.929017372885959
20
226.41125646958164
42
0.4142135623730846
10
56.429017372885959
20
225.91125646958173
10
69.429017372885951
20
225.9112564695817
42
0.414213562373069
10
69.929017372885937
20
226.41125646958164
10
69.929017372885937
20
239.4112564695817
42
0.41421356237307422
10
69.429017372885951
20
239.91125646958167
10
56.429017372885959
20
239.91125646958167
42
0.41421356237304818
10
55.929017372885959
20
239.4112564695817
0
LWPOLYLINE
5
200
100
AcDbEntity
8
0
100
AcDbPolyline
90
8
70
1
43
0.0
10
118.34151737288595
20
225.9112564695817
10
131.3415173728859
20
225.9112564695817
42
0.4142135623730846
10
131.84151737288593
20
226.41125646958164
10
131.84151737288596
20
239.4112564695817
42
0.41421356237314705
10
131.3415173728859
20
239.91125646958167
10
118.34151737288595
20
239.91125646958167
42
0.41421356237310542
10
117.84151737288596
20
239.4112564695817
10
117.84151737288596
20
226.41125646958164
42
0.41421356237310542
0
LWPOLYLINE
5
201
100
AcDbEntity
8
0
100
AcDbPolyline
90
8
70
1
43
0.0
10
374.22901737288583
20
225.9112564695817
42
0.41421356237309503
10
374.72901737288578
20
226.41125646958164
10
374.72901737288589
20
239.4112564695817
42
0.41421356237303258
10
374.22901737288583
20
239.91125646958167
10
361.22901737288595
20
239.91125646958167
42
0.41421356237301177
10
360.72901737288595
20
239.4112564695817
10
360.72901737288595
20
226.41125646958162
42
0.41421356237301177
10
361.22901737288595
20
225.91125646958164
0
LWPOLYLINE
5
202
100
AcDbEntity
8
0
100
AcDbPolyline
90
8
70
1
43
0.0
10
251.19151737288604
20
226.41125646958164
42
0.41421356237309503
10
251.69151737288601
20
225.9112564695817
10
264.69151737288598
20
225.9112564695817
42
0.41421356237303258
10
265.19151737288598
20
226.41125646958164
10
265.19151737288598
20
239.4112564695817
42
0.41421356237319906
10
264.69151737288598
20
239.91125646958167
10
251.69151737288601
20
239.91125646958167
42
0.41421356237309503
10
251.19151737288604
20
239.4112564695817
0
LINE
5
203
100
AcDbEntity
8
0
100
AcDbLine
10
398.82901737288597
20
229.8862564695817
30
0
11
398.82901737288597
21
216.8862564695817
31
0
0
LWPOLYLINE
5
204
100
AcDbEntity
8
0
100
AcDbPolyline
90
8
70
1
43
0.0
10
194.54151737288598
20
225.9112564695817
10
207.54151737288598
20
225.9112564695817
42
0.41421356237311585
10
208.04151737288601
20
226.41125646958164
10
208.04151737288601
20
239.41125646958167
42
0.4142135623731783
10
207.54151737288598
20
239.91125646958167
10
194.54151737288598
20
239.91125646958167
42
0.41421356237309503
10
194.04151737288601
20
239.4112564695817
10
194.04151737288601
20
226.41125646958164
42
0.41421356237309503
0
LWPOLYLINE
5
205
100
AcDbEntity
8
0
100
AcDbPolyline
90
8
70
1
43
0.0
10
174.99151737288597
20
239.4112564695817
10
174.99151737288597
20
226.41125646958164
42
0.41421356237313667
10
175.49151737288597
20
225.91125646958164
10
188.49151737288605
20
225.9112564695817
42
0.41421356237311585
10
188.99151737288605
20
226.41125646958164
10
188.99151737288602
20
239.4112564695817
42
0.41421356237311585
10
188.49151737288605
20
239.91125646958164
10
175.49151737288597
20
239.91125646958167
42
0.41421356237303258
0
LWPOLYLINE
5
206
100
AcDbEntity
8
0
100
AcDbPolyline
90
8
70
1
43
0.0
10
393.27901737288596
20
239.91125646958167
10
380.27901737288585
20
239.91125646958167
42
0.41421356237301177
10
379.7790173728859
20
239.4112564695817
10
379.7790173728859
20
226.41125646958164
42
0.41421356237301177
10
380.27901737288585
20
225.9112564695817
10
393.2790173728859
20
225.9112564695817
42
0.41421356237309503
10
393.77901737288602
20
226.41125646958164
10
393.77901737288596
20
239.4112564695817
42
0.41421356237301177
0
LWPOLYLINE
5
207
100
AcDbEntity
8
0
100
AcDbPolyline
90
8
70
1
43
0.0
10
355.67901737288599
20
239.4112564695817
42
0.41421356237301177
10
355.17901737288605
20
239.91125646958167
10
342.17901737288594
20
239.91125646958167
42
0.41421356237301177
10
341.67901737288594
20
239.4112564695817
10
341.67901737288594
20
226.41125646958162
42
0.41421356237301177
10
342.17901737288594
20
225.9112564695817
10
355.17901737288605
20
225.9112564695817
42
0.41421356237301177
10
355.67901737288599
20
226.41125646958164
0
LINE
5
208
100
AcDbEntity
8
0
100
AcDbLine
10
398.82901737288597
20
214.94825646958168
30
0
11
398.32901737288603
21
214.94825646958168
31
0
0
ARC
5
209
100
AcDbEntity
8
0
100
AcDbCircle
10
398.32901737288603
20
232.32425646958171
30
0
40
0.49999999999997158
210
0
220
0
230
1
100
AcDbArc
50
180
51
270
0
LWPOLYLINE
5
210
100
AcDbEntity
8
0
100
AcDbPolyline
90
8
70
1
43
0.0
10
8.804017372885939
20
220.86125646958169
42
0.41421356237312362
10
8.304017372885955
20
220.36125646958169
10
8.304017372885939
20
207.36125646958163
42
0.41421356237313406
10
8.804017372885939
20
206.86125646958172
10
21.804017372885941
20
206.86125646958172
42
0.41421356237306639
10
22.304017372885969
20
207.36125646958163
10
22.304017372885948
20
220.36125646958169
42
0.41421356237310281
10
21.804017372885941
20
220.86125646958169
0
LWPOLYLINE
5
211
100
AcDbEntity
8
0
100
AcDbPolyline
90
8
70
1
43
0.0
10
84.504017372885926
20
207.36125646958163
42
0.41421356237310542
10
85.004017372885926
20
206.86125646958175
10
98.00401737288594
20
206.86125646958172
42
0.41421356237312623
10
98.504017372885926
20
207.36125646958163
10
98.504017372885926
20
220.36125646958169
42
0.41421356237304302
10
98.00401737288594
20
220.86125646958169
10
85.004017372885926
20
220.86125646958169
42
0.4142135623730846
10
84.504017372885926
20
220.36125646958169
0
LWPOLYLINE
5
212
100
AcDbEntity
8
0
100
AcDbPolyline
90
8
70
1
43
0.0
10
40.854017372885934
20
206.86125646958172
42
0.41421356237307422
10
41.354017372885977
20
207.36125646958163
10
41.354017372885956
20
220.36125646958169
42
0.41421356237312101
10
40.854017372885949
20
220.86125646958175
10
27.854017372885945
20
220.86125646958169
42
0.41421356237312362
10
27.354017372885941
20
220.36125646958169
10
27.354017372885941
20
207.36125646958163
42
0.41421356237313406
10
27.854017372885945
20
206.86125646958172
0
LWPOLYLINE
5
213
100
AcDbEntity
8
0
100
AcDbPolyline
90
8
70
1
43
0.0
10
122.60401737288596
20
207.36125646958163
42
0.41421356237312623
10
123.10401737288595
20
206.86125646958172
10
136.10401737288592
20
206.86125646958172
42
0.41421356237309503
10
136.60401737288592
20
207.36125646958163
10
136.60401737288592
20
220.36125646958169
42
0.4142135623730846
10
136.10401737288592
20
220.86125646958175
10
123.10401737288595
20
220.86125646958169
42
0.41421356237311585
10
122.60401737288596
20
220.36125646958169
0
LINE
5
214
100
AcDbEntity
8
0
100
AcDbLine
10
397.82901737288597
20
238.32425646958171
30
0
11
397.82901737288603
21
232.32425646958171
31
0
0
LWPOLYLINE
5
215
100
AcDbEntity
8
0
100
AcDbPolyline
90
8
70
1
43
0.0
10
117.05401737288597
20
220.86125646958169
10
104.05401737288594
20
220.86125646958169
42
0.41421356237311585
10
103.55401737288597
20
220.36125646958169
10
103.55401737288595
20
207.36125646958163
42
0.41421356237312623
10
104.05401737288594
20
206.86125646958172
10
117.05401737288597
20
206.86125646958163
42
0.4142135623730534
10
117.55401737288597
20
207.36125646958163
10
117.55401737288595
20
220.36125646958169
42
0.4142135623730534
0
ARC
5
216
100
AcDbEntity
8
0
100
AcDbCircle
10
398.32901737288603
20
238.32425646958171
30
0
40
0.50000000000000711
210
0
220
-0
230
1
100
AcDbArc
50
90
51
180
0
ARC
5
217
100
AcDbEntity
8
0
100
AcDbCircle
10
412.32901737288603
20
239.4112564695817
30
0
40
0.49999999999997158
210
0
220
0
230
1
100
AcDbArc
50
0
51
90
0
ARC
5
218
100
AcDbEntity
8
0
100
AcDbCircle
10
398.32901737288603
20
208.44825646958171
30
0
40
0.49999999999997158
210
0
220
0
230
1
100
AcDbArc
50
180
51
270
0
LWPOLYLINE
5
219
100
AcDbEntity
8
0
100
AcDbPolyline
90
8
70
1
43
0.0
10
174.70401737288597
20
220.36125646958169
42
0.4142135623730534
10
174.20401737288597
20
220.86125646958169
10
161.204017372886
20
220.86125646958169
42
0.41421356237313667
10
160.70401737288597
20
220.36125646958169
10
160.70401737288594
20
207.36125646958163
42
0.41421356237311585
10
161.204017372886
20
206.86125646958172
10
174.20401737288597
20
206.86125646958163
42
0.41421356237313667
10
174.70401737288597
20
207.36125646958163
0
LWPOLYLINE
5
220
100
AcDbEntity
8
0
100
AcDbPolyline
90
8
70
1
43
0.0
10
275.00401737288598
20
207.36125646958163
42
0.4142135623731783
10
275.50401737288598
20
206.86125646958172
10
288.50401737288598
20
206.86125646958172
42
0.41421356237297013
10
289.00401737288598
20
207.36125646958163
10
289.00401737288598
20
220.36125646958166
42
0.41421356237313667
10
288.50401737288598
20
220.86125646958169
10
275.50401737288598
20
220.86125646958169
42
0.41421356237313667
10
275.00401737288598
20
220.36125646958169
0
LWPOLYLINE
5
221
100
AcDbEntity
8
0
100
AcDbPolyline
90
8
70
1
43
0.0
10
193.25401737288601
20
220.86125646958169
10
180.25401737288601
20
220.86125646958169
42
0.41421356237313667
10
179.75401737288598
20
220.36125646958169
10
179.75401737288598
20
207.36125646958163
42
0.4142135623731783
10
180.25401737288601
20
206.86125646958172
10
193.25401737288601
20
206.86125646958172
42
0.41421356237299095
10
193.75401737288598
20
207.36125646958163
10
193.75401737288598
20
220.36125646958169
42
0.41421356237303258
0
LWPOLYLINE
5
222
100
AcDbEntity
8
0
100
AcDbPolyline
90
8
70
1
43
0.0
10
236.90401737288602
20
220.36125646958169
10
236.90401737288602
20
207.36125646958163
42
0.4142135623731783
10
237.40401737288605
20
206.86125646958172
10
250.40401737288605
20
206.86125646958172
42
0.41421356237299095
10
250.90401737288602
20
207.36125646958163
10
250.90401737288602
20
220.36125646958169
42
0.41421356237303258
10
250.40401737288605
20
220.86125646958169
10
237.40401737288605
20
220.86125646958169
42
0.41421356237313667
0
LWPOLYLINE
5
223
100
AcDbEntity
8
0
100
AcDbPolyline
90
8
70
1
43
0.0
10
155.6540173728859
20
207.36125646958163
10
155.6540173728859
20
220.36125646958169
42
0.4142135623730534
10
155.1540173728859
20
220.86125646958169
10
142.15401737288596
20
220.86125646958169
42
0.41421356237311585
10
141.65401737288599
20
220.36125646958169
10
141.6540173728859
20
207.36125646958163
42
0.4142135623730846
10
142.15401737288596
20
206.86125646958172
10
155.1540173728859
20
206.86125646958163
42
0.4142135623730534
0
LWPOLYLINE
5
224
100
AcDbEntity
8
0
100
AcDbPolyline
90
8
70
1
43
0.0
10
198.80401737288605
20
207.36125646958163
42
0.4142135623732407
10
199.30401737288605
20
206.86125646958175
10
212.30401737288599
20
206.86125646958172
42
0.4142135623730534
10
212.80401737288605
20
207.36125646958163
10
212.80401737288602
20
220.36125646958169
42
0.41421356237299095
10
212.30401737288599
20
220.86125646958169
10
199.30401737288605
20
220.86125646958169
42
0.41421356237313667
10
198.80401737288605
20
220.36125646958169
0
LINE
5
225
100
AcDbEntity
8
0
100
AcDbLine
10
398.32901737288603
20
207.94825646958174
30
0
11
398.82901737288597
21
207.94825646958171
31
0
0
LINE
5
226
100
AcDbEntity
8
0
100
AcDbLine
10
412.82901737288597
20
216.8862564695817
30
0
11
412.82901737288597
21
229.8862564695817
31
0
0
LWPOLYLINE
5
227
100
AcDbEntity
8
0
100
AcDbPolyline
90
8
70
1
43
0.0
10
256.45401737288603
20
220.86125646958169
42
0.41421356237313667
10
255.95401737288603
20
220.36125646958169
10
255.954017372886
20
207.36125646958163
42
0.41421356237311585
10
256.45401737288603
20
206.86125646958172
10
269.45401737288603
20
206.86125646958172
42
0.41421356237299095
10
269.95401737288603
20
207.36125646958163
10
269.95401737288603
20
220.36125646958169
42
0.41421356237303258
10
269.45401737288603
20
220.86125646958169
0
LINE
5
228
100
AcDbEntity
8
0
100
AcDbLine
10
412.82901737288597
20
226.41125646958164
30
0
11
412.82901737288597
21
239.4112564695817
31
0
0
ARC
5
229
100
AcDbEntity
8
0
100
AcDbCircle
10
399.32901737288603
20
239.4112564695817
30
0
40
0.50000000000000711
210
0
220
-0
230
1
100
AcDbArc
50
90
51
180
0
LINE
5
230
100
AcDbEntity
8
0
100
AcDbLine
10
398.32901737288603
20
231.82425646958171
30
0
11
398.82901737288597
21
231.82425646958168
31
0
0
ARC
5
231
100
AcDbEntity
8
0
100
AcDbCircle
10
398.32901737288603
20
214.44825646958168
30
0
40
0.50000000000000711
210
0
220
-0
230
1
100
AcDbArc
50
90
51
180
0
LINE
5
232
100
AcDbEntity
8
0
100
AcDbLine
10
397.82901737288597
20
214.44825646958168
30
0
11
397.82901737288603
21
208.44825646958171
31
0
0
LINE
5
233
100
AcDbEntity
8
0
100
AcDbLine
10
398.82901737288597
20
238.82425646958168
30
0
11
398.32901737288603
21
238.82425646958171
31
0
0
LWPOLYLINE
5
234
100
AcDbEntity
8
0
100
AcDbPolyline
90
8
70
1
43
0.0
10
231.35401737288601
20
206.86125646958172
42
0.41421356237311585
10
231.85401737288603
20
207.36125646958163
10
231.85401737288601
20
220.36125646958166
42
0.41421356237311585
10
231.35401737288601
20
220.86125646958169
10
218.35401737288601
20
220.86125646958169
42
0.41421356237313667
10
217.85401737288598
20
220.36125646958169
10
217.85401737288598
20
207.36125646958163
42
0.4142135623732407
10
218.35401737288601
20
206.86125646958175
0
LWPOLYLINE
5
235
100
AcDbEntity
8
0
100
AcDbPolyline
90
8
70
1
43
0.0
10
298.02226737288595
20
221.86125646958172
42
0.41421356237313667
10
297.52226737288595
20
221.36125646958169
10
297.52226737288595
20
207.36125646958163
42
0.4142135623731783
10
298.02226737288595
20
206.86125646958172
10
304.02226737288595
20
206.86125646958172
42
0.41421356237311585
10
304.52226737288595
20
207.36125646958163
10
304.52226737288595
20
221.36125646958169
42
0.4142135623730534
10
304.02226737288595
20
221.86125646958172
0
LWPOLYLINE
5
236
100
AcDbEntity
8
0
100
AcDbPolyline
90
8
70
1
43
0.0
10
342.17901737288594
20
206.86125646958172
10
355.17901737288588
20
206.86125646958172
42
0.41421356237299095
10
355.67901737288588
20
207.36125646958163
10
355.67901737288588
20
220.36125646958169
42
0.41421356237301177
10
355.17901737288588
20
220.86125646958166
10
342.17901737288594
20
220.86125646958169
42
0.41421356237326151
10
341.67901737288588
20
220.36125646958169
10
341.67901737288594
20
207.36125646958163
42
0.41421356237307422
0
LWPOLYLINE
5
237
100
AcDbEntity
8
0
100
AcDbPolyline
90
8
70
1
43
0.0
10
321.39826737288593
20
207.36125646958163
42
0.4142135623730534
10
321.89826737288598
20
206.86125646958169
10
327.89826737288593
20
206.86125646958172
42
0.4142135623730534
10
328.39826737288593
20
207.36125646958163
10
328.39826737288598
20
221.36125646958169
42
0.41421356237299095
10
327.89826737288593
20
221.86125646958172
10
321.89826737288598
20
221.86125646958172
42
0.4142135623732407
10
321.39826737288593
20
221.36125646958169
0
LWPOLYLINE
5
238
100
AcDbEntity
8
0
100
AcDbPolyline
90
8
70
1
43
0.0
10
374.72901737288595
20
220.36125646958169
42
0.41421356237301177
10
374.22901737288601
20
220.86125646958166
10
361.22901737288595
20
220.86125646958169
42
0.41421356237326151
10
360.72901737288595
20
220.36125646958169
10
360.72901737288595
20
207.36125646958163
42
0.41421356237307422
10
361.22901737288595
20
206.86125646958172
10
374.22901737288583
20
206.86125646958172
42
0.41421356237299095
10
374.72901737288595
20
207.36125646958163
0
LWPOLYLINE
5
239
100
AcDbEntity
8
0
100
AcDbPolyline
90
8
70
1
43
0.0
10
379.77901737288596
20
207.36125646958163
42
0.41421356237303258
10
380.27901737288585
20
206.86125646958172
10
393.2790173728859
20
206.86125646958163
42
0.41421356237313667
10
393.77901737288596
20
207.36125646958163
10
393.77901737288596
20
220.36125646958169
42
0.41421356237313667
10
393.2790173728859
20
220.86125646958169
10
380.27901737288596
20
220.86125646958169
42
0.41421356237326151
10
379.7790173728859
20
220.36125646958169
0
LINE
5
240
100
AcDbEntity
8
0
100
AcDbLine
10
412.82901737288597
20
207.36125646958163
30
0
11
412.82901737288597
21
220.36125646958169
31
0
0
LWPOLYLINE
5
241
100
AcDbEntity
8
0
100
AcDbPolyline
90
8
70
1
43
0.0
10
319.96026737288594
20
207.36125646958163
10
319.96026737288594
20
220.36125646958169
42
0.4142135623730534
10
319.46026737288594
20
220.86125646958169
10
306.46026737288594
20
220.86125646958169
42
0.41421356237319906
10
305.96026737288594
20
220.36125646958169
10
305.96026737288594
20
207.36125646958163
42
0.41421356237303258
10
306.46026737288594
20
206.86125646958163
10
319.46026737288594
20
206.86125646958172
42
0.41421356237311585
0
LWPOLYLINE
5
242
100
AcDbEntity
8
0
100
AcDbPolyline
90
8
70
1
43
0.0
10
21.804017372885941
20
187.81125646958171
42
0.41421356237310802
10
22.304017372885934
20
188.31125646958168
10
22.304017372885948
20
201.31125646958168
42
0.41421356237310281
10
21.804017372885941
20
201.81125646958168
10
8.804017372885939
20
201.81125646958165
42
0.41421356237305212
10
8.3040173728859337
20
201.31125646958168
10
8.304017372885939
20
188.31125646958168
42
0.41421356237310414
10
8.804017372885939
20
187.81125646958171
0
LINE
5
243
100
AcDbEntity
8
0
100
AcDbLine
10
412.32901737288603
20
239.91125646958167
30
0
11
399.32901737288603
21
239.9112564695817
31
0
0
LWPOLYLINE
5
244
100
AcDbEntity
8
0
100
AcDbPolyline
90
8
70
1
43
0.0
10
208.32901737288603
20
201.31125646958168
10
208.32901737288603
20
188.31125646958168
42
0.41421356237307422
10
208.82901737288603
20
187.81125646958171
10
221.82901737288603
20
187.81125646958171
42
0.41421356237311585
10
222.329017372886
20
188.31125646958168
10
222.329017372886
20
201.31125646958168
42
0.41421356237303258
10
221.82901737288603
20
201.81125646958168
10
208.82901737288603
20
201.81125646958165
42
0.41421356237311585
0
LWPOLYLINE
5
245
100
AcDbEntity
8
0
100
AcDbPolyline
90
8
70
1
43
0.0
10
113.07901737288594
20
188.31125646958168
42
0.41421356237313667
10
113.57901737288593
20
187.81125646958168
10
126.57901737288594
20
187.81125646958171
42
0.4142135623730846
10
127.07901737288593
20
188.31125646958162
10
127.07901737288594
20
201.31125646958168
42
0.41421356237310542
10
126.57901737288594
20
201.81125646958165
10
113.57901737288593
20
201.81125646958165
42
0.41421356237307422
10
113.07901737288591
20
201.31125646958168
0
LWPOLYLINE
5
246
100
AcDbEntity
8
0
100
AcDbPolyline
90
8
70
1
43
0.0
10
170.72901737288601
20
187.81125646958171
10
183.72901737288598
20
187.81125646958171
42
0.41421356237313667
10
184.22901737288595
20
188.31125646958168
10
184.22901737288598
20
201.31125646958168
42
0.41421356237311585
10
183.72901737288598
20
201.81125646958165
10
170.72901737288601
20
201.81125646958168
42
0.41421356237313667
10
170.22901737288601
20
201.31125646958168
10
170.22901737288601
20
188.31125646958168
42
0.41421356237307422
0
ARC
5
247
100
AcDbEntity
8
0
100
AcDbCircle
10
412.32901737288603
20
207.36125646958163
30
0
40
0.49999999999997158
210
0
220
0
230
1
100
AcDbArc
50
-90
51
0
0
LWPOLYLINE
5
248
100
AcDbEntity
8
0
100
AcDbPolyline
90
8
70
1
43
0.0
10
132.12901737288593
20
201.31125646958168
10
132.12901737288593
20
188.31125646958168
42
0.41421356237310542
10
132.62901737288593
20
187.81125646958168
10
145.62901737288593
20
187.81125646958171
42
0.41421356237309503
10
146.1290173728859
20
188.31125646958168
10
146.12901737288593
20
201.31125646958168
42
0.4142135623730846
10
145.62901737288593
20
201.81125646958174
10
132.62901737288593
20
201.81125646958168
42
0.41421356237310542
0
LWPOLYLINE
5
249
100
AcDbEntity
8
0
100
AcDbPolyline
90
8
70
1
43
0.0
10
27.854017372885945
20
201.81125646958165
42
0.41421356237307422
10
27.354017372885938
20
201.31125646958168
10
27.354017372885941
20
188.31125646958168
42
0.41421356237310281
10
27.854017372885945
20
187.81125646958171
10
40.854017372885949
20
187.81125646958171
42
0.41421356237310542
10
41.354017372885956
20
188.31125646958168
10
41.354017372885956
20
201.31125646958168
42
0.4142135623730846
10
40.854017372885949
20
201.81125646958165
0
ARC
5
250
100
AcDbEntity
8
0
100
AcDbCircle
10
399.32901737288603
20
207.36125646958163
30
0
40
0.49999999999997158
210
0
220
0
230
1
100
AcDbArc
50
180
51
270
0
LINE
5
251
100
AcDbEntity
8
0
100
AcDbLine
10
88.479017372885949
20
201.81125646958165
30
0
11
75.479017372885949
21
201.81125646958165
31
0
0
ARC
5
252
100
AcDbEntity
8
0
100
AcDbCircle
10
88.479017372885949
20
188.31125646958168
30
0
40
0.50000000000000711
210
0
220
0
230
1
100
AcDbArc
50
-90
51
0
0
LINE
5
253
100
AcDbEntity
8
0
100
AcDbLine
10
61.134767372885932
20
201.81125646958165
30
0
11
55.134767372885932
21
201.81125646958165
31
0
0
LINE
5
254
100
AcDbEntity
8
0
100
AcDbLine
10
67.047767372885943
20
201.81125646958165
30
0
11
54.047767372885936
21
201.81125646958165
31
0
0
LWPOLYLINE
5
255
100
AcDbEntity
8
0
100
AcDbPolyline
90
8
70
1
43
0.0
10
94.029017372885932
20
188.31125646958168
42
0.41421356237313667
10
94.529017372885917
20
187.81125646958168
10
107.52901737288596
20
187.81125646958171
42
0.41421356237309503
10
108.02901737288593
20
188.31125646958168
10
108.02901737288595
20
201.31125646958168
42
0.41421356237311585
10
107.52901737288596
20
201.81125646958165
10
94.529017372885917
20
201.81125646958165
42
0.41421356237307422
10
94.029017372885932
20
201.31125646958168
0
LINE
5
256
100
AcDbEntity
8
0
100
AcDbLine
10
399.32901737288603
20
206.86125646958169
30
0
11
412.32901737288603
21
206.86125646958169
31
0
0
LWPOLYLINE
5
257
100
AcDbEntity
8
0
100
AcDbPolyline
90
8
70
1
43
0.0
10
202.77901737288602
20
187.81125646958171
42
0.4142135623730534
10
203.27901737288599
20
188.31125646958168
10
203.27901737288602
20
201.31125646958168
42
0.41421356237319906
10
202.77901737288602
20
201.81125646958165
10
189.77901737288602
20
201.81125646958165
42
0.41421356237311585
10
189.27901737288605
20
201.31125646958168
10
189.27901737288605
20
188.31125646958168
42
0.41421356237313667
10
189.77901737288602
20
187.81125646958171
0
ARC
5
258
100
AcDbEntity
8
0
100
AcDbCircle
10
88.479017372885949
20
201.31125646958168
30
0
40
0.50000000000000711
210
0
220
0
230
1
100
AcDbArc
50
0
51
90
0
LWPOLYLINE
5
259
100
AcDbEntity
8
0
100
AcDbPolyline
90
8
70
1
43
0.0
10
151.67901737288594
20
187.81125646958171
10
164.67901737288597
20
187.81125646958171
42
0.41421356237313667
10
165.17901737288597
20
188.31125646958168
10
165.17901737288597
20
201.31125646958168
42
0.41421356237311585
10
164.67901737288597
20
201.81125646958165
10
151.67901737288594
20
201.81125646958168
42
0.41421356237310542
10
151.17901737288594
20
201.31125646958168
10
151.17901737288594
20
188.31125646958168
42
0.41421356237310542
0
LINE
5
260
100
AcDbEntity
8
0
100
AcDbLine
10
55.134767372885932
20
186.81125646958165
30
0
11
61.134767372885932
21
186.81125646958165
31
0
0
LWPOLYLINE
5
261
100
AcDbEntity
8
0
100
AcDbPolyline
90
8
70
1
43
0.0
10
259.92901737288599
20
187.81125646958171
42
0.41421356237313667
10
260.42901737288599
20
188.31125646958168
10
260.42901737288605
20
201.31125646958168
42
0.4142135623730534
10
259.92901737288599
20
201.81125646958168
10
246.92901737288605
20
201.81125646958168
42
0.41421356237313667
10
246.42901737288605
20
201.31125646958168
10
246.42901737288605
20
188.31125646958168
42
0.41421356237307422
10
246.92901737288605
20
187.81125646958171
0
LWPOLYLINE
5
262
100
AcDbEntity
8
0
100
AcDbPolyline
90
8
70
1
43
0.0
10
241.37901737288601
20
188.31125646958168
10
241.37901737288601
20
201.31125646958168
42
0.41421356237309503
10
240.87901737288604
20
201.81125646958165
10
227.87901737288598
20
201.81125646958168
42
0.41421356237313667
10
227.37901737288598
20
201.31125646958168
10
227.37901737288598
20
188.31125646958168
42
0.4142135623730534
10
227.87901737288598
20
187.81125646958171
10
240.87901737288604
20
187.81125646958171
42
0.41421356237311585
0
LINE
5
263
100
AcDbEntity
8
0
100
AcDbLine
10
76.572767372885949
20
201.81125646958168
30
0
11
63.572767372885934
21
201.81125646958168
31
0
0
LINE
5
264
100
AcDbEntity
8
0
100
AcDbLine
10
54.634767372885939
20
187.81125646958171
30
0
11
54.634767372885939
21
187.31125646958168
31
0
0
LWPOLYLINE
5
265
100
AcDbEntity
8
0
100
AcDbPolyline
90
8
70
1
43
0.0
10
355.17901737288588
20
201.81125646958165
10
342.17901737288594
20
201.81125646958165
42
0.41421356237309503
10
341.67901737288588
20
201.31125646958168
10
341.67901737288588
20
188.31125646958168
42
0.41421356237315748
10
342.17901737288582
20
187.81125646958174
10
355.17901737288588
20
187.81125646958171
42
0.41421356237303258
10
355.67901737288582
20
188.31125646958168
10
355.67901737288588
20
201.31125646958168
42
0.41421356237301177
0
LINE
5
266
100
AcDbEntity
8
0
100
AcDbLine
10
88.979017372885949
20
188.31125646958168
30
0
11
88.979017372885949
21
201.31125646958168
31
0
0
LWPOLYLINE
5
267
100
AcDbEntity
8
0
100
AcDbPolyline
90
8
70
1
43
0.0
10
393.2790173728859
20
201.81125646958168
10
380.27901737288596
20
201.81125646958168
42
0.41421356237326151
10
379.7790173728859
20
201.31125646958168
10
379.77901737288596
20
188.31125646958168
42
0.41421356237299095
10
380.27901737288585
20
187.81125646958168
10
393.2790173728859
20
187.81125646958171
42
0.41421356237311585
10
393.77901737288596
20
188.31125646958168
10
393.77901737288596
20
201.31125646958168
42
0.41421356237313667
0
ARC
5
268
100
AcDbEntity
8
0
100
AcDbCircle
10
54.047767372885936
20
188.31125646958168
30
0
40
0.49999999999999822
210
0
220
0
230
1
100
AcDbArc
50
180
51
270
0
ARC
5
269
100
AcDbEntity
8
0
100
AcDbCircle
10
278.97901737288601
20
188.31125646958162
30
0
40
0.49999999999993605
210
0
220
0
230
1
100
AcDbArc
50
-90.000000000006523
51
0
0
LINE
5
270
100
AcDbEntity
8
0
100
AcDbLine
10
78.510767372885951
20
187.81125646958171
30
0
11
78.510767372885951
21
187.31125646958159
31
0
0
LWPOLYLINE
5
271
100
AcDbEntity
8
0
100
AcDbPolyline
90
8
70
1
43
0.0
10
374.72901737288589
20
201.31125646958168
42
0.41421356237299095
10
374.22901737288583
20
201.81125646958168
10
361.22901737288595
20
201.81125646958165
42
0.41421356237301177
10
360.72901737288595
20
201.31125646958168
10
360.72901737288595
20
188.31125646958168
42
0.41421356237299095
10
361.22901737288589
20
187.81125646958168
10
374.22901737288583
20
187.81125646958171
42
0.41421356237309503
10
374.72901737288589
20
188.31125646958168
0
LINE
5
272
100
AcDbEntity
8
0
100
AcDbLine
10
63.572767372885934
20
187.81125646958171
30
0
11
76.572767372885949
21
187.81125646958171
31
0
0
LINE
5
273
100
AcDbEntity
8
0
100
AcDbLine
10
79.010767372885951
20
186.81125646958165
30
0
11
85.010767372885937
21
186.81125646958165
31
0
0
LINE
5
274
100
AcDbEntity
8
0
100
AcDbLine
10
61.634767372885939
20
187.31125646958168
30
0
11
61.634767372885939
21
187.81125646958171
31
0
0
ARC
5
275
100
AcDbEntity
8
0
100
AcDbCircle
10
55.134767372885932
20
187.31125646958168
30
0
40
0.49999999999999822
210
0
220
0
230
1
100
AcDbArc
50
180
51
270
0
ARC
5
276
100
AcDbEntity
8
0
100
AcDbCircle
10
61.134767372885932
20
187.31125646958168
30
0
40
0.50000000000004263
210
0
220
0
230
1
100
AcDbArc
50
-90
51
0
0
LINE
5
277
100
AcDbEntity
8
0
100
AcDbLine
10
398.82901737288597
20
176.84825646958166
30
0
11
398.32901737288603
21
176.84825646958166
31
0
0
ARC
5
278
100
AcDbEntity
8
0
100
AcDbCircle
10
85.010767372885937
20
187.31125646958168
30
0
40
0.50000000000004263
210
0
220
0
230
1
100
AcDbArc
50
-90
51
0
0
LWPOLYLINE
5
279
100
AcDbEntity
8
0
100
AcDbPolyline
90
8
70
1
43
0.0
10
22.304017372885934
20
182.26125646958167
42
0.41421356237301959
10
21.804017372885941
20
182.76125646958164
10
8.804017372885939
20
182.76125646958167
42
0.41421356237312362
10
8.304017372885939
20
182.26125646958167
10
8.304017372885939
20
169.26125646958167
42
0.41421356237310414
10
8.804017372885939
20
168.7612564695817
10
21.804017372885941
20
168.7612564695817
42
0.41421356237309764
10
22.304017372885916
20
169.26125646958167
0
LINE
5
280
100
AcDbEntity
8
0
100
AcDbLine
10
53.547767372885943
20
201.31125646958168
30
0
11
53.547767372885943
21
188.31125646958168
31
0
0
ARC
5
281
100
AcDbEntity
8
0
100
AcDbCircle
10
54.047767372885936
20
201.31125646958168
30
0
40
0.50000000000000711
210
0
220
-0
230
1
100
AcDbArc
50
90
51
180
0
LINE
5
282
100
AcDbEntity
8
0
100
AcDbLine
10
85.510767372885979
20
187.31125646958168
30
0
11
85.510767372885951
21
187.81125646958171
31
0
0
LWPOLYLINE
5
283
100
AcDbEntity
8
0
100
AcDbPolyline
90
8
70
1
43
0.0
10
27.854017372885945
20
168.7612564695817
10
40.854017372885949
20
168.7612564695817
42
0.4142135623730846
10
41.354017372885934
20
169.26125646958161
10
41.354017372885956
20
182.26125646958167
42
0.41421356237312101
10
40.854017372885949
20
182.76125646958167
10
27.854017372885945
20
182.76125646958167
42
0.41421356237312362
10
27.354017372885941
20
182.26125646958167
10
27.354017372885941
20
169.26125646958167
42
0.41421356237310281
0
LINE
5
284
100
AcDbEntity
8
0
100
AcDbLine
10
278.97901737288595
20
201.81125646958168
30
0
11
265.97901737288595
21
201.81125646958168
31
0
0
ARC
5
285
100
AcDbEntity
8
0
100
AcDbCircle
10
79.010767372885951
20
187.31125646958159
30
0
40
0.49999999999999822
210
0
220
0
230
1
100
AcDbArc
50
180
51
270
0
LWPOLYLINE
5
286
100
AcDbEntity
8
0
100
AcDbPolyline
90
8
70
1
43
0.0
10
56.429017372885959
20
182.76125646958167
42
0.41421356237312101
10
55.92901737288598
20
182.26125646958167
10
55.929017372885959
20
169.26125646958167
42
0.41421356237310542
10
56.429017372885959
20
168.7612564695817
10
69.429017372885951
20
168.7612564695817
42
0.41421356237309503
10
69.929017372885951
20
169.26125646958167
10
69.929017372885937
20
182.26125646958167
42
0.41421356237301177
10
69.429017372885951
20
182.76125646958164
0
LWPOLYLINE
5
287
100
AcDbEntity
8
0
100
AcDbPolyline
90
8
70
1
43
0.0
10
104.05401737288594
20
182.76125646958167
42
0.41421356237311585
10
103.55401737288597
20
182.26125646958167
10
103.55401737288595
20
169.26125646958167
42
0.41421356237312623
10
104.05401737288594
20
168.7612564695817
10
117.05401737288597
20
168.7612564695817
42
0.41421356237309503
10
117.55401737288595
20
169.26125646958167
10
117.55401737288595
20
182.26125646958167
42
0.4142135623730534
10
117.05401737288597
20
182.76125646958167
0
LINE
5
288
100
AcDbEntity
8
0
100
AcDbLine
10
412.82901737288597
20
178.78625646958167
30
0
11
412.82901737288597
21
191.78625646958167
31
0
0
LWPOLYLINE
5
289
100
AcDbEntity
8
0
100
AcDbPolyline
90
8
70
1
43
0.0
10
245.66651737288598
20
183.7612564695817
42
0.41421356237313667
10
245.16651737288598
20
183.26125646958167
10
245.16651737288598
20
169.26125646958167
42
0.41421356237307422
10
245.66651737288598
20
168.7612564695817
10
251.66651737288601
20
168.7612564695817
42
0.41421356237313667
10
252.16651737288598
20
169.26125646958167
10
252.16651737288601
20
183.26125646958167
42
0.4142135623730534
10
251.66651737288601
20
183.7612564695817
0
LWPOLYLINE
5
290
100
AcDbEntity
8
0
100
AcDbPolyline
90
8
70
1
43
0.0
10
131.36651737288594
20
168.7612564695817
10
137.36651737288594
20
168.7612564695817
42
0.41421356237304302
10
137.86651737288594
20
169.26125646958161
10
137.86651737288597
20
183.26125646958167
42
0.41421356237298057
10
137.36651737288594
20
183.7612564695817
10
131.36651737288594
20
183.7612564695817
42
0.41421356237310542
10
130.86651737288594
20
183.26125646958167
10
130.86651737288594
20
169.26125646958167
42
0.41421356237310542
0
ARC
5
291
100
AcDbEntity
8
0
100
AcDbCircle
10
398.32901737288603
20
170.34825646958168
30
0
40
0.49999999999997158
210
0
220
0
230
1
100
AcDbArc
50
180
51
270
0
LWPOLYLINE
5
292
100
AcDbEntity
8
0
100
AcDbPolyline
90
8
70
1
43
0.0
10
265.97901737288595
20
168.7612564695817
10
278.97901737288595
20
168.7612564695817
42
0.41421356237313667
10
279.47901737288595
20
169.26125646958167
10
279.47901737288595
20
182.26125646958167
42
0.4142135623730534
10
278.97901737288595
20
182.76125646958167
10
265.97901737288595
20
182.76125646958167
42
0.41421356237319906
10
265.47901737288601
20
182.26125646958167
10
265.47901737288601
20
169.26125646958167
42
0.41421356237311585
0
LWPOLYLINE
5
293
100
AcDbEntity
8
0
100
AcDbPolyline
90
8
70
1
43
0.0
10
198.51651737288603
20
182.26125646958167
42
0.41421356237313667
10
198.01651737288603
20
182.76125646958167
10
185.016517372886
20
182.76125646958167
42
0.41421356237313667
10
184.516517372886
20
182.26125646958167
10
184.516517372886
20
169.26125646958167
42
0.41421356237307422
10
185.016517372886
20
168.7612564695817
10
198.01651737288603
20
168.7612564695817
42
0.4142135623730534
10
198.51651737288603
20
169.26125646958167
0
LINE
5
294
100
AcDbEntity
8
0
100
AcDbLine
10
412.32901737288603
20
201.81125646958165
30
0
11
399.32901737288603
21
201.81125646958165
31
0
0
LINE
5
295
100
AcDbEntity
8
0
100
AcDbLine
10
398.82901737288597
20
200.72425646958169
30
0
11
398.32901737288603
21
200.72425646958169
31
0
0
ARC
5
296
100
AcDbEntity
8
0
100
AcDbCircle
10
398.32901737288603
20
194.22425646958172
30
0
40
0.49999999999997158
210
0
220
0
230
1
100
AcDbArc
50
180
51
270
0
ARC
5
297
100
AcDbEntity
8
0
100
AcDbCircle
10
398.32901737288603
20
176.34825646958174
30
0
40
0.49999999999997158
210
0
220
-0
230
1
100
AcDbArc
50
90
51
180
0
LINE
5
298
100
AcDbEntity
8
0
100
AcDbLine
10
412.82901737288597
20
188.31125646958168
30
0
11
412.82901737288597
21
201.31125646958168
31
0
0
LINE
5
299
100
AcDbEntity
8
0
100
AcDbLine
10
398.82901737288597
20
191.78625646958167
30
0
11
398.82901737288597
21
178.78625646958167
31
0
0
LINE
5
300
100
AcDbEntity
8
0
100
AcDbLine
10
397.82901737288603
20
176.34825646958174
30
0
11
397.82901737288603
21
170.34825646958168
31
0
0
ARC
5
301
100
AcDbEntity
8
0
100
AcDbCircle
10
398.32901737288603
20
200.22425646958169
30
0
40
0.49999999999997158
210
0
220
-0
230
1
100
AcDbArc
50
90
51
180
0
LINE
5
302
100
AcDbEntity
8
0
100
AcDbLine
10
398.32901737288603
20
169.84825646958171
30
0
11
398.82901737288597
21
169.84825646958168
31
0
0
ARC
5
303
100
AcDbEntity
8
0
100
AcDbCircle
10
412.32901737288603
20
201.31125646958168
30
0
40
0.50000000000004263
210
0
220
0
230
1
100
AcDbArc
50
0
51
90
0
ARC
5
304
100
AcDbEntity
8
0
100
AcDbCircle
10
399.32901737288603
20
201.31125646958168
30
0
40
0.49999999999997158
210
0
220
-0
230
1
100
AcDbArc
50
90
51
180
0
LINE
5
305
100
AcDbEntity
8
0
100
AcDbLine
10
397.82901737288603
20
200.22425646958169
30
0
11
397.82901737288603
21
194.22425646958172
31
0
0
LINE
5
306
100
AcDbEntity
8
0
100
AcDbLine
10
398.32901737288603
20
193.72425646958175
30
0
11
398.82901737288597
21
193.72425646958169
31
0
0
ARC
5
307
100
AcDbEntity
8
0
100
AcDbCircle
10
367.14201737288596
20
183.26125646958167
30
0
40
0.50000000000000711
210
0
220
-0
230
1
100
AcDbArc
50
90
51
180
0
LINE
5
308
100
AcDbEntity
8
0
100
AcDbLine
10
366.6420173728859
20
183.26125646958167
30
0
11
366.64201737288602
21
182.76125646958167
31
0
0
LINE
5
309
100
AcDbEntity
8
0
100
AcDbLine
10
349.76601737288598
20
182.76125646958167
30
0
11
349.76601737288598
21
183.26125646958167
31
0
0
LWPOLYLINE
5
310
100
AcDbEntity
8
0
100
AcDbPolyline
90
10
70
1
43
0.0
10
58.810267372885939
20
206.86125646958169
10
71.810267372885932
20
206.86125646958169
42
0.41421356237309503
10
72.310267372885946
20
207.36125646958169
10
72.310267372885946
20
220.36125646958169
42
0.41421356237309503
10
71.810267372885932
20
220.86125646958169
10
58.810267372885939
20
220.86125646958169
10
54.047767372885943
20
220.86125646958169
42
0.41421356237309503
10
53.547767372885943
20
220.36125646958169
10
53.547767372885943
20
207.36125646958169
42
0.41421356237309503
10
54.047767372885943
20
206.86125646958169
0
LINE
5
311
100
AcDbEntity
8
0
100
AcDbLine
10
305.17276737288597
20
201.81125646958168
30
0
11
292.17276737288597
21
201.81125646958168
31
0
0
ARC
5
312
100
AcDbEntity
8
0
100
AcDbCircle
10
331.36651737288605
20
188.31125646958171
30
0
40
0.50000000000000711
210
0
220
0
230
1
100
AcDbArc
50
-90
51
0
0
LINE
5
313
100
AcDbEntity
8
0
100
AcDbLine
10
292.75976737288596
20
187.81125646958171
30
0
11
292.75976737288596
21
187.31125646958168
31
0
0
ARC
5
314
100
AcDbEntity
8
0
100
AcDbCircle
10
292.17276737288597
20
201.31125646958168
30
0
40
0.50000000000000711
210
0
220
-0
230
1
100
AcDbArc
50
90
51
180
0
LINE
5
315
100
AcDbEntity
8
0
100
AcDbLine
10
299.75976737288596
20
187.31125646958168
30
0
11
299.75976737288596
21
187.81125646958171
31
0
0
ARC
5
316
100
AcDbEntity
8
0
100
AcDbCircle
10
317.13576737288599
20
187.31125646958168
30
0
40
0.50000000000000711
210
0
220
0
230
1
100
AcDbArc
50
180
51
270
0
ARC
5
317
100
AcDbEntity
8
0
100
AcDbCircle
10
331.36651737288605
20
201.31125646958168
30
0
40
0.49999999999997158
210
0
220
0
230
1
100
AcDbArc
50
0
51
90
0
ARC
5
318
100
AcDbEntity
8
0
100
AcDbCircle
10
292.17276737288597
20
188.31125646958171
30
0
40
0.50000000000000711
210
0
220
0
230
1
100
AcDbArc
50
180
51
270
0
LINE
5
319
100
AcDbEntity
8
0
100
AcDbLine
10
331.36651737288605
20
201.81125646958168
30
0
11
318.36651737288599
21
201.81125646958168
31
0
0
ARC
5
320
100
AcDbEntity
8
0
100
AcDbCircle
10
299.2597673728859
20
187.31125646958168
30
0
40
0.50000000000000711
210
0
220
0
230
1
100
AcDbArc
50
-90
51
0
0
LINE
5
321
100
AcDbEntity
8
0
100
AcDbLine
10
317.13576737288599
20
186.81125646958168
30
0
11
323.13576737288599
21
186.81125646958168
31
0
0
LINE
5
322
100
AcDbEntity
8
0
100
AcDbLine
10
293.25976737288596
20
186.81125646958168
30
0
11
299.2597673728859
21
186.81125646958168
31
0
0
LINE
5
323
100
AcDbEntity
8
0
100
AcDbLine
10
291.67276737288597
20
201.31125646958168
30
0
11
291.67276737288597
21
188.31125646958171
31
0
0
LINE
5
324
100
AcDbEntity
8
0
100
AcDbLine
10
323.63576737288599
20
187.81125646958171
30
0
11
331.36651737288605
21
187.81125646958171
31
0
0
LINE
5
325
100
AcDbEntity
8
0
100
AcDbLine
10
331.86651737288599
20
188.31125646958171
30
0
11
331.86651737288599
21
201.31125646958168
31
0
0
ARC
5
326
100
AcDbEntity
8
0
100
AcDbCircle
10
265.97901737288595
20
201.31125646958168
30
0
40
0.50000000000000711
210
0
220
-0
230
1
100
AcDbArc
50
90
51
180
0
LINE
5
327
100
AcDbEntity
8
0
100
AcDbLine
10
265.97901737288595
20
187.81125646958171
30
0
11
278.97901737288595
21
187.81125646958171
31
0
0
LINE
5
328
100
AcDbEntity
8
0
100
AcDbLine
10
279.47901737288595
20
188.31125646958171
30
0
11
279.47901737288595
21
201.31125646958168
31
0
0
LINE
5
329
100
AcDbEntity
8
0
100
AcDbLine
10
301.69776737288595
20
187.81125646958171
30
0
11
314.69776737288595
21
187.81125646958171
31
0
0
ARC
5
330
100
AcDbEntity
8
0
100
AcDbCircle
10
278.97901737288595
20
201.31125646958168
30
0
40
0.50000000000000711
210
0
220
0
230
1
100
AcDbArc
50
0
51
90
0
LINE
5
331
100
AcDbEntity
8
0
100
AcDbLine
10
265.47901737288595
20
201.31125646958168
30
0
11
265.47901737288601
21
188.31125646958171
31
0
0
ARC
5
332
100
AcDbEntity
8
0
100
AcDbCircle
10
265.97901737288595
20
188.31125646958171
30
0
40
0.49999999999997158
210
0
220
0
230
1
100
AcDbArc
50
180
51
270
0
ARC
5
333
100
AcDbEntity
8
0
100
AcDbCircle
10
323.13576737288599
20
187.31125646958168
30
0
40
0.50000000000000711
210
0
220
0
230
1
100
AcDbArc
50
-90
51
0
0
ARC
5
334
100
AcDbEntity
8
0
100
AcDbCircle
10
293.25976737288596
20
187.31125646958168
30
0
40
0.50000000000000711
210
0
220
0
230
1
100
AcDbArc
50
180
51
270
0
LINE
5
335
100
AcDbEntity
8
0
100
AcDbLine
10
323.63576737288599
20
187.31125646958168
30
0
11
323.63576737288599
21
187.81125646958171
31
0
0
LINE
5
336
100
AcDbEntity
8
0
100
AcDbLine
10
292.17276737288597
20
187.81125646958171
30
0
11
292.75976737288596
21
187.81125646958171
31
0
0
LINE
5
337
100
AcDbEntity
8
0
100
AcDbLine
10
299.75976737288596
20
187.81125646958171
30
0
11
305.17276737288597
21
187.81125646958171
31
0
0
LINE
5
338
100
AcDbEntity
8
0
100
AcDbLine
10
305.17276737288597
20
201.81125646958168
30
0
11
318.36651737288599
21
201.81125646958168
31
0
0
LINE
5
339
100
AcDbEntity
8
0
100
AcDbLine
10
314.69776737288595
20
187.81125646958171
30
0
11
316.63576737288599
21
187.81125646958171
31
0
0
LINE
5
340
100
AcDbEntity
8
0
100
AcDbLine
10
316.63576737288599
20
187.81125646958171
30
0
11
316.63576737288599
21
187.31125646958168
31
0
0
ENDSEC
0
SECTION
2
OBJECTS
0
DICTIONARY
5
C
100
AcDbDictionary
3
ACAD_GROUP
350
D
3
ACAD_MLINESTYLE
350
17
0
DICTIONARY
5
D
100
AcDbDictionary
0
DICTIONARY
5
1A
330
C
100
AcDbDictionary
0
DICTIONARY
5
17
100
AcDbDictionary
0
ENDSEC
0
EOF
